# xmcd
#
# Track frame offsets:
#	150
#	19589
#	35263
#	46560
#	58792
#	77532
#	94092
#	107834
#	125807
#	140178
#	155260
#	178504
#	189358
#	207974
#	222305
#	235890
#
# Disc length: 3302 seconds
#
# Revision: 0
# Processed by: cddbd v1.5.2PL0 Copyright (c) Steve Scherf et al.
# Submitted via: MusicManager 7.3.0.0 
#
DISCID=d60ce410
DTITLE=SEAN WILSON - THESE TENDER YEARS
DYEAR=2011
DGENRE=country
TTITLE0=ROSIE
TTITLE1=COTTAGE ON THE HILL
TTITLE2=ON THE ROAD AGAIN
TTITLE3=THAT'S THE WAY TO MY HEART
TTITLE4=SHANAGOLDEN
TTITLE5=MEDLEY :3 SONGS
TTITLE6=THESE TENDER YEARS
TTITLE7=IT'S REALLY NICE TO MEET SOMEONE FROM HOME
TTITLE8=YOU WERE NEVER FAR FROM MY MIND
TTITLE9=DAISY A DAY
TTITLE10=THIS HOUSE A HOME
TTITLE11=SENTIMENTAL IRISH
TTITLE12=THE EMIGRANTS FAREWELL
TTITLE13=GIVE A LONELY HEART A HOME
TTITLE14=LOVELY LEITRIM SHORE
TTITLE15=GALWAY GIRL
EXTD=
EXTT0=
EXTT1=
EXTT2=
EXTT3=
EXTT4=
EXTT5=
EXTT6=
EXTT7=
EXTT8=
EXTT9=
EXTT10=
EXTT11=
EXTT12=
EXTT13=
EXTT14=
EXTT15=
PLAYORDER=
